<svg id="Capa_1" data-name="Capa 1" xmlns="http://www.w3.org/2000/svg" viewBox="0 0 40 40"><defs><style>.cls-1{opacity:0.5;}</style></defs><path class="cls-1" d="M24.2,26.35a1.43,1.43,0,0,0,1-.42,1.49,1.49,0,0,0,.42-1.08v-9.7a1.34,1.34,0,0,0-.45-1,1.49,1.49,0,0,0-2.55,1.07v9.7a1.38,1.38,0,0,0,.45,1A1.56,1.56,0,0,0,24.2,26.35ZM24,34a1.62,1.62,0,0,0,1.65-1.65,1.65,1.65,0,1,0-3.3,0A1.62,1.62,0,0,0,24,34Zm0,10a20.23,20.23,0,0,1-7.9-1.53A19.3,19.3,0,0,1,5.53,31.9,20.23,20.23,0,0,1,4,24a20.09,20.09,0,0,1,1.53-7.85A19.44,19.44,0,0,1,9.75,9.8,19.84,19.84,0,0,1,16.1,5.55,20.06,20.06,0,0,1,24,4,19.84,19.84,0,0,1,44,24a20.06,20.06,0,0,1-1.55,7.9,19.84,19.84,0,0,1-4.25,6.35,19.44,19.44,0,0,1-6.35,4.22A20.09,20.09,0,0,1,24,44Zm0-3a16.37,16.37,0,0,0,12-5,16.37,16.37,0,0,0,5-12,16.37,16.37,0,0,0-5-12A16.37,16.37,0,0,0,24,7a16.37,16.37,0,0,0-12,5A16.37,16.37,0,0,0,7,24a16.37,16.37,0,0,0,5,12A16.37,16.37,0,0,0,24,41Z" transform="translate(-4 -4)"/></svg>