<svg id="Capa_1" data-name="Capa 1" xmlns="http://www.w3.org/2000/svg" viewBox="0 0 40 40"><defs><style>.cls-1{opacity:0.5;}</style></defs><path class="cls-1" d="M21.05,28.55l-4.9-4.9a1.5,1.5,0,0,0-1.1-.45,1.71,1.71,0,0,0-1.65,1.65,1.44,1.44,0,0,0,.5,1.1l6.1,6.1a1.45,1.45,0,0,0,2.1,0l12-12a1.4,1.4,0,0,0,.42-1.1,1.56,1.56,0,0,0-.47-1.1,1.46,1.46,0,0,0-1.13-.5,1.62,1.62,0,0,0-1.17.5ZM24,44a20.23,20.23,0,0,1-7.9-1.53A19.3,19.3,0,0,1,5.53,31.9,20.23,20.23,0,0,1,4,24a20.09,20.09,0,0,1,1.53-7.85A19.44,19.44,0,0,1,9.75,9.8,19.84,19.84,0,0,1,16.1,5.55,20.06,20.06,0,0,1,24,4,19.84,19.84,0,0,1,44,24a20.06,20.06,0,0,1-1.55,7.9,19.84,19.84,0,0,1-4.25,6.35,19.44,19.44,0,0,1-6.35,4.22A20.09,20.09,0,0,1,24,44Zm0-3A16.67,16.67,0,0,0,41,24,16.67,16.67,0,0,0,24,7,16.67,16.67,0,0,0,7,24,16.67,16.67,0,0,0,24,41Z" transform="translate(-4 -4)"/></svg>