<svg width="161" height="69" viewBox="0 0 161 69" fill="none" xmlns="http://www.w3.org/2000/svg">
<path d="M18.8124 49.1377V39.8024H22.9041C23.9192 39.8024 24.7005 40.0187 25.2478 40.4513C25.7951 40.875 26.0688 41.4664 26.0688 42.2256C26.0688 42.7906 25.9011 43.2673 25.5656 43.6557C25.2301 44.0441 24.7667 44.3045 24.1752 44.437V44.2383C24.855 44.3354 25.3802 44.5826 25.751 44.9799C26.1306 45.3683 26.3204 45.8847 26.3204 46.5291C26.3204 47.3589 26.0335 48.0033 25.4597 48.4624C24.8859 48.9126 24.087 49.1377 23.063 49.1377H18.8124ZM20.4544 47.84H22.8643C23.4381 47.84 23.8839 47.7341 24.2017 47.5222C24.5195 47.3015 24.6784 46.944 24.6784 46.4497C24.6784 45.9465 24.5195 45.589 24.2017 45.3771C23.8839 45.1564 23.4381 45.0461 22.8643 45.0461H20.4544V47.84ZM20.4544 43.7616H22.6127C23.2219 43.7616 23.6721 43.6513 23.9634 43.4306C24.2635 43.2011 24.4136 42.8656 24.4136 42.4242C24.4136 41.9829 24.2635 41.6518 23.9634 41.4311C23.6721 41.2016 23.2219 41.0869 22.6127 41.0869H20.4544V43.7616ZM27.8091 49.1377V44.1589C27.8091 43.8764 27.8003 43.5895 27.7826 43.2982C27.7738 43.0069 27.7517 42.7244 27.7164 42.4507H29.3186L29.504 44.2781H29.2392C29.3275 43.8367 29.4731 43.4703 29.6762 43.179C29.888 42.8877 30.144 42.6714 30.4442 42.5302C30.7443 42.3889 31.0709 42.3183 31.424 42.3183C31.5829 42.3183 31.7109 42.3271 31.808 42.3448C31.9051 42.3536 32.0022 42.3757 32.0994 42.411L32.0861 43.8676C31.9184 43.797 31.7727 43.7528 31.6491 43.7352C31.5344 43.7175 31.3887 43.7087 31.2122 43.7087C30.8326 43.7087 30.5104 43.7881 30.2455 43.947C29.9895 44.1059 29.7953 44.3266 29.6629 44.6091C29.5393 44.8916 29.4775 45.2138 29.4775 45.5757V49.1377H27.8091ZM35.9363 49.2701C35.2477 49.2701 34.6519 49.1289 34.1487 48.8464C33.6455 48.5639 33.2527 48.1622 32.9702 47.6414C32.6965 47.1206 32.5597 46.5026 32.5597 45.7876C32.5597 45.0726 32.6965 44.459 32.9702 43.947C33.2527 43.4262 33.6455 43.0245 34.1487 42.742C34.6519 42.4596 35.2477 42.3183 35.9363 42.3183C36.6248 42.3183 37.2207 42.4596 37.7239 42.742C38.2359 43.0245 38.6287 43.4262 38.9024 43.947C39.1849 44.459 39.3261 45.0726 39.3261 45.7876C39.3261 46.5026 39.1849 47.1206 38.9024 47.6414C38.6287 48.1622 38.2359 48.5639 37.7239 48.8464C37.2207 49.1289 36.6248 49.2701 35.9363 49.2701ZM35.9363 47.9989C36.4571 47.9989 36.872 47.818 37.181 47.456C37.49 47.0853 37.6444 46.5291 37.6444 45.7876C37.6444 45.0461 37.49 44.4943 37.181 44.1324C36.872 43.7705 36.4571 43.5895 35.9363 43.5895C35.4155 43.5895 35.0006 43.7705 34.6916 44.1324C34.3826 44.4943 34.2281 45.0461 34.2281 45.7876C34.2281 46.5291 34.3826 47.0853 34.6916 47.456C35.0006 47.818 35.4155 47.9989 35.9363 47.9989ZM42.478 49.1377L39.8694 42.4507H41.5776L43.4579 47.6546H43.1136L45.0204 42.4507H46.1989L48.0924 47.6546H47.7879L49.6549 42.4507H51.2704L48.6618 49.1377H47.2052L45.2058 43.8146H45.9076L43.9478 49.1377H42.478ZM54.5681 49.2701C53.9943 49.2701 53.4647 49.2039 52.9791 49.0715C52.5024 48.9302 52.1008 48.736 51.7742 48.4889L52.2376 47.3766C52.5731 47.6061 52.9438 47.7826 53.3499 47.9062C53.756 48.0298 54.1665 48.0916 54.5814 48.0916C55.0227 48.0916 55.3494 48.0166 55.5612 47.8665C55.7819 47.7164 55.8923 47.5134 55.8923 47.2574C55.8923 47.0544 55.8217 46.8955 55.6804 46.7807C55.548 46.6571 55.3317 46.5644 55.0316 46.5026L53.7074 46.251C53.1425 46.1275 52.7099 45.9156 52.4098 45.6155C52.1184 45.3153 51.9728 44.9225 51.9728 44.437C51.9728 44.0221 52.0831 43.6557 52.3038 43.3379C52.5333 43.0201 52.8556 42.7729 53.2705 42.5964C53.6942 42.411 54.1885 42.3183 54.7535 42.3183C55.2479 42.3183 55.7113 42.3845 56.1439 42.5169C56.5852 42.6494 56.956 42.848 57.2562 43.1128L56.7795 44.1854C56.5058 43.9647 56.1924 43.7925 55.8393 43.669C55.4862 43.5454 55.1419 43.4836 54.8065 43.4836C54.3474 43.4836 54.012 43.5674 53.8001 43.7352C53.5883 43.8941 53.4823 44.1015 53.4823 44.3575C53.4823 44.5517 53.5441 44.715 53.6677 44.8474C53.8001 44.971 54.0032 45.0637 54.2768 45.1255L55.601 45.3771C56.1924 45.4919 56.6382 45.6949 56.9384 45.9862C57.2473 46.2687 57.4018 46.6571 57.4018 47.1515C57.4018 47.5929 57.2826 47.9724 57.0443 48.2902C56.8059 48.608 56.4749 48.8508 56.0512 49.0185C55.6274 49.1862 55.1331 49.2701 54.5681 49.2701ZM62.0493 49.2701C60.9282 49.2701 60.0498 48.9611 59.4142 48.3432C58.7786 47.7253 58.4608 46.8778 58.4608 45.8008C58.4608 45.1034 58.5976 44.4943 58.8713 43.9735C59.145 43.4527 59.5246 43.0466 60.0101 42.7553C60.5044 42.464 61.0782 42.3183 61.7315 42.3183C62.3759 42.3183 62.9144 42.4551 63.3469 42.7288C63.7795 43.0025 64.1061 43.3865 64.3268 43.8808C64.5563 44.3752 64.6711 44.9534 64.6711 45.6155V46.0524H59.7982V45.1785H63.4926L63.2675 45.3639C63.2675 44.7459 63.1351 44.2736 62.8702 43.947C62.6142 43.6204 62.2391 43.4571 61.7447 43.4571C61.1974 43.4571 60.7737 43.6513 60.4735 44.0397C60.1822 44.4281 60.0366 44.971 60.0366 45.6684V45.8406C60.0366 46.5644 60.2131 47.1073 60.5662 47.4693C60.9282 47.8224 61.4357 47.9989 62.089 47.9989C62.4686 47.9989 62.8217 47.9504 63.1483 47.8533C63.4838 47.7473 63.8016 47.5796 64.1017 47.3501L64.5916 48.4624C64.2738 48.7184 63.8943 48.917 63.4529 49.0582C63.0115 49.1995 62.5436 49.2701 62.0493 49.2701Z" fill="#54B1D4"/>
<path d="M69.7064 49.1377V42.4507H71.3616V49.1377H69.7064ZM69.6137 41.1928V39.5773H71.4543V41.1928H69.6137ZM73.159 49.1377V44.1192C73.159 43.8455 73.1502 43.5674 73.1325 43.2849C73.1149 43.0025 73.0884 42.7244 73.0531 42.4507H74.6553L74.7877 43.7749H74.6288C74.8407 43.307 75.1541 42.9495 75.569 42.7023C75.9839 42.4463 76.465 42.3183 77.0123 42.3183C77.7979 42.3183 78.3894 42.539 78.7866 42.9804C79.1839 43.4218 79.3825 44.1103 79.3825 45.0461V49.1377H77.7273V45.1255C77.7273 44.587 77.6214 44.203 77.4095 43.9735C77.2065 43.7352 76.8975 43.616 76.4826 43.616C75.9706 43.616 75.5645 43.7749 75.2644 44.0927C74.9643 44.4105 74.8142 44.8342 74.8142 45.3639V49.1377H73.159ZM84.6388 52.1435L84.2548 50.8326C84.6697 50.7443 85.0184 50.6428 85.3008 50.5281C85.5833 50.4133 85.8173 50.2632 86.0026 50.0778C86.188 49.8925 86.3425 49.6541 86.4661 49.3628L86.7971 48.5816L86.7574 49.2304L83.8443 42.4507H85.6054L87.6976 47.6679H87.3136L89.419 42.4507H91.0874L88.0418 49.5085C87.8388 49.9852 87.6181 50.378 87.3798 50.687C87.1414 51.0047 86.8854 51.2563 86.6118 51.4417C86.3381 51.6359 86.038 51.786 85.7113 51.8919C85.3847 51.9979 85.0272 52.0817 84.6388 52.1435ZM94.8507 49.2701C94.1621 49.2701 93.5662 49.1289 93.0631 48.8464C92.5599 48.5639 92.167 48.1622 91.8846 47.6414C91.6109 47.1206 91.4741 46.5026 91.4741 45.7876C91.4741 45.0726 91.6109 44.459 91.8846 43.947C92.167 43.4262 92.5599 43.0245 93.0631 42.742C93.5662 42.4596 94.1621 42.3183 94.8507 42.3183C95.5392 42.3183 96.1351 42.4596 96.6383 42.742C97.1503 43.0245 97.5431 43.4262 97.8168 43.947C98.0992 44.459 98.2405 45.0726 98.2405 45.7876C98.2405 46.5026 98.0992 47.1206 97.8168 47.6414C97.5431 48.1622 97.1503 48.5639 96.6383 48.8464C96.1351 49.1289 95.5392 49.2701 94.8507 49.2701ZM94.8507 47.9989C95.3715 47.9989 95.7864 47.818 96.0954 47.456C96.4043 47.0853 96.5588 46.5291 96.5588 45.7876C96.5588 45.0461 96.4043 44.4943 96.0954 44.1324C95.7864 43.7705 95.3715 43.5895 94.8507 43.5895C94.3298 43.5895 93.9149 43.7705 93.606 44.1324C93.297 44.4943 93.1425 45.0461 93.1425 45.7876C93.1425 46.5291 93.297 47.0853 93.606 47.456C93.9149 47.818 94.3298 47.9989 94.8507 47.9989ZM102.078 49.2701C101.257 49.2701 100.643 49.045 100.237 48.5948C99.8312 48.1446 99.6282 47.456 99.6282 46.5291V42.4507H101.283V46.5159C101.283 47.0102 101.385 47.3766 101.588 47.6149C101.791 47.8444 102.1 47.9592 102.515 47.9592C102.983 47.9592 103.362 47.8003 103.654 47.4825C103.954 47.1647 104.104 46.7454 104.104 46.2246V42.4507H105.759V49.1377H104.144V47.7738H104.329C104.135 48.2505 103.839 48.6213 103.442 48.8861C103.053 49.1421 102.599 49.2701 102.078 49.2701ZM107.543 49.1377V44.1589C107.543 43.8764 107.534 43.5895 107.516 43.2982C107.507 43.0069 107.485 42.7244 107.45 42.4507H109.052L109.238 44.2781H108.973C109.061 43.8367 109.207 43.4703 109.41 43.179C109.622 42.8877 109.878 42.6714 110.178 42.5302C110.478 42.3889 110.804 42.3183 111.158 42.3183C111.316 42.3183 111.444 42.3271 111.542 42.3448C111.639 42.3536 111.736 42.3757 111.833 42.411L111.82 43.8676C111.652 43.797 111.506 43.7528 111.383 43.7352C111.268 43.7175 111.122 43.7087 110.946 43.7087C110.566 43.7087 110.244 43.7881 109.979 43.947C109.723 44.1059 109.529 44.3266 109.396 44.6091C109.273 44.8916 109.211 45.2138 109.211 45.5757V49.1377H107.543ZM116.838 49.1377V43.6954H115.554V42.4507H117.302L116.838 42.8745V41.8549C116.838 41.0251 117.046 40.3983 117.46 39.9746C117.884 39.5508 118.498 39.339 119.301 39.339C119.495 39.339 119.698 39.3522 119.91 39.3787C120.131 39.4052 120.321 39.4537 120.479 39.5244V40.822C120.365 40.7779 120.228 40.7426 120.069 40.7161C119.91 40.6896 119.756 40.6764 119.606 40.6764C119.261 40.6764 118.988 40.7779 118.785 40.9809C118.582 41.1751 118.48 41.4929 118.48 41.9343V42.742L118.242 42.4507H122.889V49.1377H121.234V43.6954H118.493V49.1377H116.838ZM121.142 41.1928V39.5773H122.982V41.1928H121.142ZM124.69 49.1377V39.3919H126.345V49.1377H124.69ZM131.373 49.2701C130.252 49.2701 129.374 48.9611 128.738 48.3432C128.103 47.7253 127.785 46.8778 127.785 45.8008C127.785 45.1034 127.922 44.4943 128.195 43.9735C128.469 43.4527 128.849 43.0466 129.334 42.7553C129.828 42.464 130.402 42.3183 131.055 42.3183C131.7 42.3183 132.238 42.4551 132.671 42.7288C133.103 43.0025 133.43 43.3865 133.651 43.8808C133.88 44.3752 133.995 44.9534 133.995 45.6155V46.0524H129.122V45.1785H132.817L132.591 45.3639C132.591 44.7459 132.459 44.2736 132.194 43.947C131.938 43.6204 131.563 43.4571 131.069 43.4571C130.521 43.4571 130.098 43.6513 129.797 44.0397C129.506 44.4281 129.361 44.971 129.361 45.6684V45.8406C129.361 46.5644 129.537 47.1073 129.89 47.4693C130.252 47.8224 130.76 47.9989 131.413 47.9989C131.793 47.9989 132.146 47.9504 132.472 47.8533C132.808 47.7473 133.126 47.5796 133.426 47.3501L133.916 48.4624C133.598 48.7184 133.218 48.917 132.777 49.0582C132.335 49.1995 131.868 49.2701 131.373 49.2701ZM137.78 49.2701C137.206 49.2701 136.677 49.2039 136.191 49.0715C135.714 48.9302 135.313 48.736 134.986 48.4889L135.45 47.3766C135.785 47.6061 136.156 47.7826 136.562 47.9062C136.968 48.0298 137.378 48.0916 137.793 48.0916C138.235 48.0916 138.561 48.0166 138.773 47.8665C138.994 47.7164 139.104 47.5134 139.104 47.2574C139.104 47.0544 139.034 46.8955 138.892 46.7807C138.76 46.6571 138.544 46.5644 138.244 46.5026L136.919 46.251C136.354 46.1275 135.922 45.9156 135.622 45.6155C135.33 45.3153 135.185 44.9225 135.185 44.437C135.185 44.0221 135.295 43.6557 135.516 43.3379C135.745 43.0201 136.068 42.7729 136.482 42.5964C136.906 42.411 137.401 42.3183 137.966 42.3183C138.46 42.3183 138.923 42.3845 139.356 42.5169C139.797 42.6494 140.168 42.848 140.468 43.1128L139.991 44.1854C139.718 43.9647 139.404 43.7925 139.051 43.669C138.698 43.5454 138.354 43.4836 138.018 43.4836C137.559 43.4836 137.224 43.5674 137.012 43.7352C136.8 43.8941 136.694 44.1015 136.694 44.3575C136.694 44.5517 136.756 44.715 136.88 44.8474C137.012 44.971 137.215 45.0637 137.489 45.1255L138.813 45.3771C139.404 45.4919 139.85 45.6949 140.15 45.9862C140.459 46.2687 140.614 46.6571 140.614 47.1515C140.614 47.5929 140.495 47.9724 140.256 48.2902C140.018 48.608 139.687 48.8508 139.263 49.0185C138.839 49.1862 138.345 49.2701 137.78 49.2701Z" fill="#0F0F0F"/>
<path d="M17.7796 50.5545H65.1743V51.1372H17.7796V50.5545Z" fill="#54B1D4"/>
<path d="M75.5976 8.83207L75.6562 8.85093L75.659 8.84745C75.9082 8.89277 76.1475 8.72948 76.2173 8.47516C76.8691 6.11398 78.9199 4.47137 81.1973 4.47137C81.4777 4.47137 81.6938 4.22835 81.6938 3.9432C81.6938 3.65804 81.4777 3.41503 81.1973 3.41503C78.3816 3.41503 76.0218 5.4356 75.2649 8.17755C75.1892 8.45116 75.3319 8.74665 75.5976 8.83207Z" fill="#54B1D4" stroke="#F9FFF9" stroke-width="0.179703"/>
<path d="M86.889 25.421H84.4496C84.2252 25.421 84.0431 25.2247 84.0431 24.9827C84.0431 24.7407 84.2251 24.5444 84.4496 24.5444H86.889C90.2515 24.5444 92.9874 21.5948 92.9874 17.9697C92.9874 14.3446 90.2515 11.395 86.889 11.395H86.8303C86.7124 11.395 86.6003 11.3399 86.5231 11.2438C86.4458 11.1477 86.411 11.0202 86.4278 10.8944C86.4641 10.6214 86.4824 10.3471 86.4824 10.0801C86.4824 6.9383 84.1112 4.38194 81.1971 4.38194C80.0633 4.38194 78.9822 4.7639 78.0703 5.4868C77.8699 5.64553 77.5853 5.57509 77.4694 5.33746C74.8869 0.0357604 68.1416 -0.676203 64.6445 3.93581C63.1713 5.87878 62.5925 8.40628 63.0563 10.8697C63.1074 11.1417 62.9143 11.3953 62.6579 11.3953H62.495C59.1324 11.3953 56.3965 14.3449 56.3965 17.97C56.3965 21.5952 59.1324 24.5447 62.495 24.5447H64.9343C65.1588 24.5447 65.3409 24.741 65.3409 24.9831C65.3409 25.2251 65.1588 25.4214 64.9343 25.4214H62.495C58.684 25.4214 55.5834 22.0786 55.5834 17.97C55.5834 13.9767 58.5123 10.7068 62.1758 10.5265C61.8317 7.97077 62.4897 5.39286 64.0149 3.38104C67.7591 -1.55719 74.9344 -1.00368 77.9676 4.5028C78.9353 3.84877 80.0425 3.50567 81.1969 3.50567C84.7276 3.50567 87.5254 6.74545 87.2806 10.5306C90.9103 10.75 93.8004 14.0026 93.8004 17.9697C93.8004 22.0786 90.6999 25.421 86.889 25.421Z" fill="#54B1D4"/>
<path d="M64.3834 24.7353C64.3834 30.8207 68.9771 35.7831 74.6375 35.7831C80.2979 35.7831 84.8915 30.8207 84.8915 24.7353C84.8915 18.6499 80.2979 13.6875 74.6375 13.6875C68.977 13.6875 64.3834 18.65 64.3834 24.7353ZM65.3764 24.7353C65.3764 19.2198 69.5373 14.744 74.6375 14.744C79.7376 14.744 83.8985 19.2197 83.8985 24.7353C83.8985 30.2508 79.7376 34.7266 74.6375 34.7266C69.5373 34.7266 65.3764 30.2509 65.3764 24.7353Z" fill="#54B1D4" stroke="#F9FFF9" stroke-width="0.179703"/>
<path d="M74.4358 29.1467C74.4358 29.367 74.6031 29.5574 74.8233 29.5574C75.0435 29.5574 75.2108 29.3673 75.2108 29.1467V20.8033C75.2108 20.583 75.0435 20.3926 74.8233 20.3926C74.6031 20.3926 74.4358 20.583 74.4358 20.8033V29.1467Z" fill="#54B1D4" stroke="#25757C" stroke-width="0.179703"/>
<path d="M77.4148 23.5984L77.4808 23.6594C77.4057 23.7407 77.3054 23.7822 77.2044 23.7822L77.4148 23.5984ZM77.4148 23.5984C77.3568 23.6612 77.2805 23.6924 77.2044 23.6924L77.4148 23.5984ZM77.4148 23.5984L77.4807 23.6595C77.629 23.4997 77.629 23.2433 77.4807 23.0835L75.0995 20.5163C74.9477 20.3527 74.6984 20.3526 74.5468 20.5164L77.4148 23.5984ZM74.8232 21.3903L76.928 23.6595C77.003 23.7404 77.1032 23.7822 77.2043 23.7822L74.8232 21.3903ZM74.8232 21.3903L72.7184 23.6595L72.7183 23.6595L74.8232 21.3903Z" fill="#54B1D4" stroke="#25757C" stroke-width="0.179703"/>
<path d="M18.636 66V62.0273H17.0782V61.5894H20.7068V62.0273H19.1553V66H18.636ZM21.2856 66V61.3955H21.7923V63.5538H21.711C21.7986 63.3078 21.9446 63.1222 22.149 62.997C22.3575 62.8677 22.5973 62.8031 22.8684 62.8031C23.2438 62.8031 23.5232 62.9053 23.7067 63.1096C23.8903 63.3098 23.982 63.6143 23.982 64.023V66H23.4753V64.0543C23.4753 63.7624 23.4169 63.5497 23.3001 63.4162C23.1875 63.2827 23.004 63.216 22.7495 63.216C22.4576 63.216 22.224 63.3057 22.0489 63.485C21.8779 63.6644 21.7923 63.9 21.7923 64.192V66H21.2856ZM26.3465 66.0563C25.8543 66.0563 25.4664 65.9145 25.1828 65.6309C24.8992 65.3431 24.7574 64.9448 24.7574 64.436C24.7574 64.1065 24.82 63.8208 24.9451 63.5789C25.0702 63.3328 25.2454 63.143 25.4706 63.0095C25.6958 62.8719 25.9544 62.8031 26.2464 62.8031C26.5341 62.8031 26.776 62.8636 26.9721 62.9845C27.1681 63.1055 27.3183 63.2786 27.4225 63.5038C27.5268 63.7248 27.5789 63.9876 27.5789 64.2921V64.4797H25.1453V64.1607H27.2473L27.141 64.242C27.141 63.9084 27.0659 63.6477 26.9158 63.46C26.7656 63.2723 26.5425 63.1785 26.2464 63.1785C25.9336 63.1785 25.6896 63.289 25.5144 63.51C25.3392 63.7269 25.2516 64.021 25.2516 64.3922V64.4485C25.2516 64.8405 25.3476 65.1387 25.5394 65.3431C25.7354 65.5433 26.0086 65.6434 26.359 65.6434C26.5467 65.6434 26.7218 65.6163 26.8845 65.5621C27.0513 65.5037 27.2098 65.4098 27.36 65.2805L27.5351 65.6371C27.3975 65.7706 27.2223 65.8749 27.0096 65.95C26.8011 66.0209 26.58 66.0563 26.3465 66.0563ZM29.9856 66V62.8594H30.4924V66H29.9856ZM29.923 62.1462V61.5769H30.5487V62.1462H29.923ZM31.4763 66V63.5851C31.4763 63.4683 31.4701 63.3495 31.4576 63.2285C31.4492 63.1034 31.4388 62.9804 31.4263 62.8594H31.9143L31.9768 63.5476H31.9018C31.9852 63.3098 32.1165 63.1263 32.2959 62.997C32.4794 62.8677 32.7005 62.8031 32.959 62.8031C33.2218 62.8031 33.4345 62.8657 33.5972 62.9908C33.764 63.1159 33.8766 63.3098 33.935 63.5726H33.8412C33.9204 63.3349 34.0601 63.1472 34.2603 63.0095C34.4605 62.8719 34.6941 62.8031 34.961 62.8031C35.3072 62.8031 35.5679 62.9032 35.743 63.1034C35.9182 63.2994 36.0058 63.6101 36.0058 64.0356V66H35.4991V64.0668C35.4991 63.7707 35.4469 63.5559 35.3426 63.4225C35.2384 63.2848 35.0715 63.216 34.8422 63.216C34.5794 63.216 34.3709 63.3078 34.2165 63.4913C34.0664 63.6706 33.9913 63.9125 33.9913 64.217V66H33.4846V64.0668C33.4846 63.7707 33.4324 63.5559 33.3282 63.4225C33.2239 63.2848 33.0571 63.216 32.8277 63.216C32.5649 63.216 32.3585 63.3078 32.2083 63.4913C32.0582 63.6706 31.9831 63.9125 31.9831 64.217V66H31.4763ZM38.1637 66.0563C37.8843 66.0563 37.6403 65.9917 37.4318 65.8624C37.2232 65.7289 37.0606 65.5412 36.9438 65.2993C36.8312 65.0574 36.7749 64.7675 36.7749 64.4297C36.7749 64.0877 36.8312 63.7957 36.9438 63.5538C37.0606 63.3119 37.2232 63.1263 37.4318 62.997C37.6403 62.8677 37.8843 62.8031 38.1637 62.8031C38.4474 62.8031 38.6914 62.8761 38.8957 63.0221C39.1043 63.1639 39.2419 63.3578 39.3086 63.6039H39.2336L39.3024 62.8594H39.7904C39.7778 62.9804 39.7653 63.1034 39.7528 63.2285C39.7445 63.3495 39.7403 63.4683 39.7403 63.5851V66H39.2336V65.2618H39.3024C39.2356 65.5078 39.098 65.7018 38.8895 65.8436C38.6809 65.9854 38.439 66.0563 38.1637 66.0563ZM38.2638 65.6434C38.5641 65.6434 38.8019 65.5412 38.9771 65.3368C39.1522 65.1283 39.2398 64.8259 39.2398 64.4297C39.2398 64.0293 39.1522 63.7269 38.9771 63.5226C38.8019 63.314 38.5641 63.2097 38.2638 63.2097C37.9677 63.2097 37.73 63.314 37.5506 63.5226C37.3755 63.7269 37.2879 64.0293 37.2879 64.4297C37.2879 64.8259 37.3755 65.1283 37.5506 65.3368C37.73 65.5412 37.9677 65.6434 38.2638 65.6434ZM42.1027 67.3951C41.8316 67.3951 41.5813 67.3618 41.352 67.295C41.1226 67.2283 40.9161 67.1261 40.7326 66.9885L40.8827 66.6068C41.012 66.6986 41.1392 66.7716 41.2644 66.8258C41.3895 66.88 41.5188 66.9197 41.6523 66.9447C41.7857 66.9739 41.9275 66.9885 42.0777 66.9885C42.3863 66.9885 42.6199 66.9071 42.7784 66.7445C42.9369 66.5818 43.0161 66.3503 43.0161 66.05V65.1304H43.0787C43.0119 65.3765 42.8743 65.5725 42.6658 65.7185C42.4572 65.8603 42.2132 65.9312 41.9338 65.9312C41.646 65.9312 41.3957 65.8686 41.183 65.7435C40.9745 65.6142 40.8118 65.4328 40.6951 65.1992C40.5824 64.9615 40.5261 64.682 40.5261 64.3609C40.5261 64.0439 40.5824 63.7686 40.6951 63.5351C40.8118 63.3015 40.9745 63.1222 41.183 62.997C41.3957 62.8677 41.646 62.8031 41.9338 62.8031C42.2174 62.8031 42.4614 62.874 42.6658 63.0158C42.8743 63.1576 43.0119 63.3536 43.0787 63.6039L43.0161 63.5413L43.0724 62.8594H43.5666C43.55 62.9804 43.5374 63.1034 43.5291 63.2285C43.5208 63.3495 43.5166 63.4683 43.5166 63.5851V65.9812C43.5166 66.4484 43.3956 66.8008 43.1537 67.0385C42.916 67.2763 42.5657 67.3951 42.1027 67.3951ZM42.0276 65.5183C42.3321 65.5183 42.5719 65.4182 42.7471 65.218C42.9223 65.0136 43.0098 64.7279 43.0098 64.3609C43.0098 63.9939 42.9223 63.7102 42.7471 63.51C42.5719 63.3098 42.3321 63.2097 42.0276 63.2097C41.7273 63.2097 41.4875 63.3098 41.3082 63.51C41.1288 63.7102 41.0391 63.9939 41.0391 64.3609C41.0391 64.7279 41.1288 65.0136 41.3082 65.218C41.4875 65.4182 41.7273 65.5183 42.0276 65.5183ZM45.8848 66.0563C45.3927 66.0563 45.0048 65.9145 44.7212 65.6309C44.4375 65.3431 44.2957 64.9448 44.2957 64.436C44.2957 64.1065 44.3583 63.8208 44.4834 63.5789C44.6085 63.3328 44.7837 63.143 45.0089 63.0095C45.2342 62.8719 45.4928 62.8031 45.7847 62.8031C46.0725 62.8031 46.3144 62.8636 46.5104 62.9845C46.7064 63.1055 46.8566 63.2786 46.9609 63.5038C47.0651 63.7248 47.1173 63.9876 47.1173 64.2921V64.4797H44.6836V64.1607H46.7857L46.6793 64.242C46.6793 63.9084 46.6043 63.6477 46.4541 63.46C46.304 63.2723 46.0808 63.1785 45.7847 63.1785C45.4719 63.1785 45.2279 63.289 45.0527 63.51C44.8776 63.7269 44.79 64.021 44.79 64.3922V64.4485C44.79 64.8405 44.8859 65.1387 45.0778 65.3431C45.2738 65.5433 45.547 65.6434 45.8973 65.6434C46.085 65.6434 46.2602 65.6163 46.4228 65.5621C46.5897 65.5037 46.7482 65.4098 46.8983 65.2805L47.0735 65.6371C46.9358 65.7706 46.7607 65.8749 46.548 65.95C46.3394 66.0209 46.1184 66.0563 45.8848 66.0563ZM50.5687 66.0563C50.3185 66.0563 50.0849 66.0229 49.868 65.9562C49.6512 65.8853 49.4718 65.7873 49.33 65.6622L49.5052 65.3056C49.6595 65.4265 49.8263 65.5162 50.0057 65.5746C50.1892 65.633 50.379 65.6622 50.575 65.6622C50.8252 65.6622 51.0129 65.6184 51.138 65.5308C51.2673 65.439 51.332 65.3139 51.332 65.1554C51.332 65.0345 51.2903 64.9385 51.2069 64.8676C51.1276 64.7926 50.9962 64.7342 50.8127 64.6925L50.2309 64.5736C49.964 64.5152 49.7638 64.4172 49.6303 64.2796C49.4968 64.1377 49.4301 63.9584 49.4301 63.7415C49.4301 63.558 49.4781 63.3974 49.574 63.2598C49.6699 63.118 49.8096 63.0075 49.9932 62.9282C50.1767 62.8448 50.3915 62.8031 50.6375 62.8031C50.8669 62.8031 51.0776 62.8385 51.2694 62.9094C51.4654 62.9762 51.6281 63.0742 51.7574 63.2035L51.576 63.5538C51.4508 63.4329 51.307 63.3432 51.1443 63.2848C50.9858 63.2223 50.8211 63.191 50.6501 63.191C50.404 63.191 50.2184 63.241 50.0933 63.3411C49.9723 63.4371 49.9118 63.5643 49.9118 63.7228C49.9118 63.8437 49.9494 63.9438 50.0244 64.023C50.1037 64.0981 50.2246 64.1544 50.3873 64.192L50.9691 64.3108C51.2527 64.3734 51.4634 64.4714 51.601 64.6049C51.7428 64.7342 51.8137 64.9093 51.8137 65.1304C51.8137 65.3181 51.7616 65.4828 51.6573 65.6246C51.553 65.7623 51.4071 65.8686 51.2194 65.9437C51.0359 66.0188 50.819 66.0563 50.5687 66.0563ZM52.6276 66V62.8594H53.1343V66H52.6276ZM52.565 62.1462V61.5769H53.1907V62.1462H52.565ZM53.9369 66V65.6622L56.0515 63.1222L56.0577 63.2535H53.9369V62.8594H56.527V63.1972L54.3873 65.7498L54.3811 65.6059H56.5958V66H53.9369ZM58.6965 66.0563C58.2044 66.0563 57.8165 65.9145 57.5329 65.6309C57.2493 65.3431 57.1075 64.9448 57.1075 64.436C57.1075 64.1065 57.17 63.8208 57.2951 63.5789C57.4203 63.3328 57.5954 63.143 57.8207 63.0095C58.0459 62.8719 58.3045 62.8031 58.5964 62.8031C58.8842 62.8031 59.1261 62.8636 59.3221 62.9845C59.5182 63.1055 59.6683 63.2786 59.7726 63.5038C59.8769 63.7248 59.929 63.9876 59.929 64.2921V64.4797H57.4953V64.1607H59.5974L59.4911 64.242C59.4911 63.9084 59.416 63.6477 59.2658 63.46C59.1157 63.2723 58.8926 63.1785 58.5964 63.1785C58.2836 63.1785 58.0396 63.289 57.8645 63.51C57.6893 63.7269 57.6017 64.021 57.6017 64.3922V64.4485C57.6017 64.8405 57.6976 65.1387 57.8895 65.3431C58.0855 65.5433 58.3587 65.6434 58.709 65.6434C58.8967 65.6434 59.0719 65.6163 59.2346 65.5621C59.4014 65.5037 59.5599 65.4098 59.71 65.2805L59.8852 65.6371C59.7476 65.7706 59.5724 65.8749 59.3597 65.95C59.1511 66.0209 58.9301 66.0563 58.6965 66.0563ZM63.6557 66.0563C63.3471 66.0563 63.0781 65.9896 62.8487 65.8561C62.6235 65.7226 62.4483 65.5329 62.3232 65.2868C62.2022 65.0407 62.1417 64.7488 62.1417 64.4109C62.1417 64.0689 62.2043 63.7791 62.3294 63.5413C62.4545 63.2994 62.6297 63.1159 62.8549 62.9908C63.0843 62.8657 63.3513 62.8031 63.6557 62.8031C63.8559 62.8031 64.0499 62.8385 64.2375 62.9094C64.4294 62.9804 64.5879 63.0804 64.713 63.2097L64.5316 63.5726C64.4065 63.4516 64.2688 63.362 64.1187 63.3036C63.9727 63.2452 63.8288 63.216 63.687 63.216C63.3617 63.216 63.1093 63.3182 62.93 63.5226C62.7507 63.7269 62.661 64.0251 62.661 64.4172C62.661 64.8051 62.7507 65.1054 62.93 65.3181C63.1093 65.5308 63.3617 65.6371 63.687 65.6371C63.8246 65.6371 63.9664 65.61 64.1124 65.5558C64.2626 65.5016 64.4023 65.4119 64.5316 65.2868L64.713 65.6434C64.5837 65.7769 64.4231 65.879 64.2313 65.95C64.0394 66.0209 63.8476 66.0563 63.6557 66.0563ZM66.6037 66.0563C66.3243 66.0563 66.0803 65.9917 65.8717 65.8624C65.6632 65.7289 65.5005 65.5412 65.3837 65.2993C65.2711 65.0574 65.2148 64.7675 65.2148 64.4297C65.2148 64.0877 65.2711 63.7957 65.3837 63.5538C65.5005 63.3119 65.6632 63.1263 65.8717 62.997C66.0803 62.8677 66.3243 62.8031 66.6037 62.8031C66.8873 62.8031 67.1313 62.8761 67.3357 63.0221C67.5442 63.1639 67.6819 63.3578 67.7486 63.6039H67.6735L67.7423 62.8594H68.2303C68.2178 62.9804 68.2053 63.1034 68.1928 63.2285C68.1844 63.3495 68.1803 63.4683 68.1803 63.5851V66H67.6735V65.2618H67.7423C67.6756 65.5078 67.538 65.7018 67.3294 65.8436C67.1209 65.9854 66.879 66.0563 66.6037 66.0563ZM66.7038 65.6434C67.0041 65.6434 67.2418 65.5412 67.417 65.3368C67.5922 65.1283 67.6798 64.8259 67.6798 64.4297C67.6798 64.0293 67.5922 63.7269 67.417 63.5226C67.2418 63.314 67.0041 63.2097 66.7038 63.2097C66.4077 63.2097 66.1699 63.314 65.9906 63.5226C65.8154 63.7269 65.7278 64.0293 65.7278 64.4297C65.7278 64.8259 65.8154 65.1283 65.9906 65.3368C66.1699 65.5412 66.4077 65.6434 66.7038 65.6434ZM69.16 66V63.5851C69.16 63.4683 69.1538 63.3495 69.1413 63.2285C69.1329 63.1034 69.1225 62.9804 69.11 62.8594H69.598L69.6605 63.5476H69.5855C69.6772 63.3057 69.8232 63.1222 70.0234 62.997C70.2278 62.8677 70.4634 62.8031 70.7303 62.8031C71.1015 62.8031 71.381 62.9032 71.5687 63.1034C71.7605 63.2994 71.8565 63.6101 71.8565 64.0356V66H71.3497V64.0668C71.3497 63.7707 71.2892 63.5559 71.1683 63.4225C71.0515 63.2848 70.868 63.216 70.6177 63.216C70.3258 63.216 70.0943 63.3057 69.9233 63.485C69.7523 63.6644 69.6668 63.9042 69.6668 64.2045V66H69.16ZM74.457 66V63.5851C74.457 63.4683 74.4508 63.3495 74.4383 63.2285C74.4299 63.1034 74.4195 62.9804 74.407 62.8594H74.895L74.9575 63.5476H74.8824C74.9742 63.3057 75.1202 63.1222 75.3204 62.997C75.5247 62.8677 75.7604 62.8031 76.0273 62.8031C76.3985 62.8031 76.678 62.9032 76.8657 63.1034C77.0575 63.2994 77.1534 63.6101 77.1534 64.0356V66H76.6467V64.0668C76.6467 63.7707 76.5862 63.5559 76.4653 63.4225C76.3485 63.2848 76.165 63.216 75.9147 63.216C75.6228 63.216 75.3913 63.3057 75.2203 63.485C75.0493 63.6644 74.9638 63.9042 74.9638 64.2045V66H74.457ZM79.4115 66.0563C79.1112 66.0563 78.8485 65.9917 78.6232 65.8624C78.4022 65.7289 78.2312 65.5412 78.1102 65.2993C77.9893 65.0532 77.9288 64.7634 77.9288 64.4297C77.9288 64.0919 77.9893 63.802 78.1102 63.5601C78.2312 63.3182 78.4022 63.1326 78.6232 63.0033C78.8485 62.8698 79.1112 62.8031 79.4115 62.8031C79.716 62.8031 79.9787 62.8698 80.1998 63.0033C80.425 63.1326 80.5981 63.3182 80.7191 63.5601C80.8442 63.802 80.9067 64.0919 80.9067 64.4297C80.9067 64.7634 80.8442 65.0532 80.7191 65.2993C80.5981 65.5412 80.425 65.7289 80.1998 65.8624C79.9787 65.9917 79.716 66.0563 79.4115 66.0563ZM79.4115 65.6434C79.7118 65.6434 79.9496 65.5412 80.1247 65.3368C80.2999 65.1283 80.3875 64.8259 80.3875 64.4297C80.3875 64.0293 80.2978 63.7269 80.1185 63.5226C79.9433 63.314 79.7076 63.2097 79.4115 63.2097C79.1154 63.2097 78.8797 63.314 78.7046 63.5226C78.5294 63.7269 78.4418 64.0293 78.4418 64.4297C78.4418 64.8259 78.5294 65.1283 78.7046 65.3368C78.8797 65.5412 79.1154 65.6434 79.4115 65.6434ZM82.7799 66.0563C82.4712 66.0563 82.2356 65.9687 82.0729 65.7935C81.9103 65.6142 81.8289 65.3452 81.8289 64.9865V63.2535H81.2158V62.8594H81.8289V62.0023L82.3357 61.8584V62.8594H83.2366V63.2535H82.3357V64.9302C82.3357 65.1804 82.3774 65.3598 82.4608 65.4682C82.5484 65.5725 82.6777 65.6246 82.8487 65.6246C82.9279 65.6246 82.9988 65.6184 83.0614 65.6059C83.124 65.5892 83.1803 65.5704 83.2303 65.5496V65.975C83.1719 66 83.101 66.0188 83.0176 66.0313C82.9384 66.048 82.8591 66.0563 82.7799 66.0563ZM87.0613 66.0563C86.7777 66.0563 86.5337 65.9854 86.3293 65.8436C86.125 65.6976 85.9873 65.4995 85.9164 65.2493H85.9853V66H85.4848V61.3955H85.9915V63.5914H85.9164C85.9873 63.3495 86.125 63.1576 86.3293 63.0158C86.5337 62.874 86.7777 62.8031 87.0613 62.8031C87.3449 62.8031 87.5889 62.8698 87.7933 63.0033C88.0018 63.1326 88.1624 63.3182 88.275 63.5601C88.3918 63.802 88.4502 64.0919 88.4502 64.4297C88.4502 64.7675 88.3918 65.0574 88.275 65.2993C88.1582 65.5412 87.9956 65.7289 87.787 65.8624C87.5827 65.9917 87.3408 66.0563 87.0613 66.0563ZM86.955 65.6434C87.2511 65.6434 87.4888 65.5412 87.6682 65.3368C87.8475 65.1325 87.9372 64.8301 87.9372 64.4297C87.9372 64.0293 87.8475 63.7269 87.6682 63.5226C87.4888 63.314 87.2511 63.2097 86.955 63.2097C86.6588 63.2097 86.4211 63.314 86.2418 63.5226C86.0666 63.7269 85.979 64.0293 85.979 64.4297C85.979 64.8259 86.0666 65.1283 86.2418 65.3368C86.4211 65.5412 86.6588 65.6434 86.955 65.6434ZM90.6312 66.0563C90.139 66.0563 89.7511 65.9145 89.4675 65.6309C89.1839 65.3431 89.0421 64.9448 89.0421 64.436C89.0421 64.1065 89.1046 63.8208 89.2298 63.5789C89.3549 63.3328 89.5301 63.143 89.7553 63.0095C89.9805 62.8719 90.2391 62.8031 90.5311 62.8031C90.8188 62.8031 91.0607 62.8636 91.2568 62.9845C91.4528 63.1055 91.603 63.2786 91.7072 63.5038C91.8115 63.7248 91.8636 63.9876 91.8636 64.2921V64.4797H89.43V64.1607H91.532L91.4257 64.242C91.4257 63.9084 91.3506 63.6477 91.2005 63.46C91.0503 63.2723 90.8272 63.1785 90.5311 63.1785C90.2182 63.1785 89.9743 63.289 89.7991 63.51C89.6239 63.7269 89.5363 64.021 89.5363 64.3922V64.4485C89.5363 64.8405 89.6323 65.1387 89.8241 65.3431C90.0201 65.5433 90.2933 65.6434 90.6437 65.6434C90.8314 65.6434 91.0065 65.6163 91.1692 65.5621C91.336 65.5037 91.4945 65.4098 91.6447 65.2805L91.8198 65.6371C91.6822 65.7706 91.507 65.8749 91.2943 65.95C91.0858 66.0209 90.8647 66.0563 90.6312 66.0563ZM94.2703 66V63.5851C94.2703 63.4683 94.264 63.3495 94.2515 63.2285C94.2432 63.1034 94.2327 62.9804 94.2202 62.8594H94.7082L94.7708 63.5476H94.6957C94.7791 63.3098 94.9105 63.1263 95.0898 62.997C95.2734 62.8677 95.4944 62.8031 95.753 62.8031C96.0158 62.8031 96.2285 62.8657 96.3911 62.9908C96.558 63.1159 96.6706 63.3098 96.729 63.5726H96.6351C96.7144 63.3349 96.8541 63.1472 97.0543 63.0095C97.2545 62.8719 97.488 62.8031 97.755 62.8031C98.1012 62.8031 98.3618 62.9032 98.537 63.1034C98.7122 63.2994 98.7998 63.6101 98.7998 64.0356V66H98.293V64.0668C98.293 63.7707 98.2409 63.5559 98.1366 63.4225C98.0323 63.2848 97.8655 63.216 97.6361 63.216C97.3734 63.216 97.1648 63.3078 97.0105 63.4913C96.8603 63.6706 96.7853 63.9125 96.7853 64.217V66H96.2785V64.0668C96.2785 63.7707 96.2264 63.5559 96.1221 63.4225C96.0178 63.2848 95.851 63.216 95.6216 63.216C95.3589 63.216 95.1524 63.3078 95.0023 63.4913C94.8521 63.6706 94.777 63.9125 94.777 64.217V66H94.2703ZM101.052 66.0563C100.751 66.0563 100.488 65.9917 100.263 65.8624C100.042 65.7289 99.8712 65.5412 99.7503 65.2993C99.6293 65.0532 99.5688 64.7634 99.5688 64.4297C99.5688 64.0919 99.6293 63.802 99.7503 63.5601C99.8712 63.3182 100.042 63.1326 100.263 63.0033C100.488 62.8698 100.751 62.8031 101.052 62.8031C101.356 62.8031 101.619 62.8698 101.84 63.0033C102.065 63.1326 102.238 63.3182 102.359 63.5601C102.484 63.802 102.547 64.0919 102.547 64.4297C102.547 64.7634 102.484 65.0532 102.359 65.2993C102.238 65.5412 102.065 65.7289 101.84 65.8624C101.619 65.9917 101.356 66.0563 101.052 66.0563ZM101.052 65.6434C101.352 65.6434 101.59 65.5412 101.765 65.3368C101.94 65.1283 102.028 64.8259 102.028 64.4297C102.028 64.0293 101.938 63.7269 101.758 63.5226C101.583 63.314 101.348 63.2097 101.052 63.2097C100.755 63.2097 100.52 63.314 100.345 63.5226C100.169 63.7269 100.082 64.0293 100.082 64.4297C100.082 64.8259 100.169 65.1283 100.345 65.3368C100.52 65.5412 100.755 65.6434 101.052 65.6434ZM103.324 66V63.6164C103.324 63.4913 103.32 63.3641 103.312 63.2348C103.308 63.1055 103.299 62.9804 103.287 62.8594H103.775L103.837 63.6227L103.75 63.6289C103.791 63.4412 103.864 63.2869 103.969 63.166C104.073 63.045 104.196 62.9553 104.338 62.8969C104.48 62.8344 104.628 62.8031 104.782 62.8031C104.845 62.8031 104.899 62.8052 104.945 62.8093C104.995 62.8135 105.041 62.8239 105.082 62.8406L105.076 63.2911C105.014 63.2702 104.955 63.2577 104.901 63.2535C104.851 63.2452 104.792 63.241 104.726 63.241C104.542 63.241 104.382 63.2848 104.244 63.3724C104.111 63.46 104.008 63.5726 103.937 63.7102C103.871 63.8479 103.837 63.9939 103.837 64.1482V66H103.324ZM106.968 66.0563C106.476 66.0563 106.088 65.9145 105.804 65.6309C105.521 65.3431 105.379 64.9448 105.379 64.436C105.379 64.1065 105.442 63.8208 105.567 63.5789C105.692 63.3328 105.867 63.143 106.092 63.0095C106.317 62.8719 106.576 62.8031 106.868 62.8031C107.156 62.8031 107.398 62.8636 107.594 62.9845C107.79 63.1055 107.94 63.2786 108.044 63.5038C108.148 63.7248 108.201 63.9876 108.201 64.2921V64.4797H105.767V64.1607H107.869L107.763 64.242C107.763 63.9084 107.688 63.6477 107.537 63.46C107.387 63.2723 107.164 63.1785 106.868 63.1785C106.555 63.1785 106.311 63.289 106.136 63.51C105.961 63.7269 105.873 64.021 105.873 64.3922V64.4485C105.873 64.8405 105.969 65.1387 106.161 65.3431C106.357 65.5433 106.63 65.6434 106.981 65.6434C107.168 65.6434 107.343 65.6163 107.506 65.5621C107.673 65.5037 107.831 65.4098 107.982 65.2805L108.157 65.6371C108.019 65.7706 107.844 65.8749 107.631 65.95C107.423 66.0209 107.202 66.0563 106.968 66.0563ZM111.721 66.0563C111.412 66.0563 111.177 65.9687 111.014 65.7935C110.851 65.6142 110.77 65.3452 110.77 64.9865V63.2535H110.157V62.8594H110.77V62.0023L111.277 61.8584V62.8594H112.178V63.2535H111.277V64.9302C111.277 65.1804 111.318 65.3598 111.402 65.4682C111.489 65.5725 111.619 65.6246 111.79 65.6246C111.869 65.6246 111.94 65.6184 112.002 65.6059C112.065 65.5892 112.121 65.5704 112.171 65.5496V65.975C112.113 66 112.042 66.0188 111.959 66.0313C111.879 66.048 111.8 66.0563 111.721 66.0563ZM112.794 66V61.3955H113.301V63.5538H113.22C113.307 63.3078 113.453 63.1222 113.658 62.997C113.866 62.8677 114.106 62.8031 114.377 62.8031C114.753 62.8031 115.032 62.9053 115.216 63.1096C115.399 63.3098 115.491 63.6143 115.491 64.023V66H114.984V64.0543C114.984 63.7624 114.926 63.5497 114.809 63.4162C114.696 63.2827 114.513 63.216 114.258 63.216C113.966 63.216 113.733 63.3057 113.558 63.485C113.387 63.6644 113.301 63.9 113.301 64.192V66H112.794ZM117.655 66.0563C117.376 66.0563 117.132 65.9917 116.923 65.8624C116.715 65.7289 116.552 65.5412 116.435 65.2993C116.323 65.0574 116.266 64.7675 116.266 64.4297C116.266 64.0877 116.323 63.7957 116.435 63.5538C116.552 63.3119 116.715 63.1263 116.923 62.997C117.132 62.8677 117.376 62.8031 117.655 62.8031C117.939 62.8031 118.183 62.8761 118.387 63.0221C118.596 63.1639 118.733 63.3578 118.8 63.6039H118.725L118.794 62.8594H119.282C119.269 62.9804 119.257 63.1034 119.244 63.2285C119.236 63.3495 119.232 63.4683 119.232 63.5851V66H118.725V65.2618H118.794C118.727 65.5078 118.589 65.7018 118.381 65.8436C118.172 65.9854 117.93 66.0563 117.655 66.0563ZM117.755 65.6434C118.056 65.6434 118.293 65.5412 118.468 65.3368C118.644 65.1283 118.731 64.8259 118.731 64.4297C118.731 64.0293 118.644 63.7269 118.468 63.5226C118.293 63.314 118.056 63.2097 117.755 63.2097C117.459 63.2097 117.221 63.314 117.042 63.5226C116.867 63.7269 116.779 64.0293 116.779 64.4297C116.779 64.8259 116.867 65.1283 117.042 65.3368C117.221 65.5412 117.459 65.6434 117.755 65.6434ZM120.211 66V63.5851C120.211 63.4683 120.205 63.3495 120.193 63.2285C120.184 63.1034 120.174 62.9804 120.161 62.8594H120.649L120.712 63.5476H120.637C120.729 63.3057 120.875 63.1222 121.075 62.997C121.279 62.8677 121.515 62.8031 121.782 62.8031C122.153 62.8031 122.432 62.9032 122.62 63.1034C122.812 63.2994 122.908 63.6101 122.908 64.0356V66H122.401V64.0668C122.401 63.7707 122.341 63.5559 122.22 63.4225C122.103 63.2848 121.919 63.216 121.669 63.216C121.377 63.216 121.146 63.3057 120.975 63.485C120.804 63.6644 120.718 63.9042 120.718 64.2045V66H120.211ZM126.972 66.0563C126.781 66.0563 126.593 66.0355 126.409 65.9937C126.226 65.952 126.053 65.8916 125.89 65.8123C125.732 65.7331 125.592 65.6371 125.471 65.5245L125.665 65.1241C125.869 65.2868 126.078 65.4077 126.29 65.487C126.503 65.5621 126.73 65.5996 126.972 65.5996C127.289 65.5996 127.538 65.5141 127.717 65.3431C127.896 65.1721 127.986 64.9469 127.986 64.6674C127.986 64.3796 127.9 64.144 127.729 63.9605C127.558 63.777 127.321 63.6852 127.016 63.6852C126.799 63.6852 126.605 63.729 126.434 63.8166C126.263 63.9 126.115 64.0314 125.99 64.2107H125.615V61.5894H128.23V62.0273H126.115V63.7853H125.978C126.09 63.6101 126.245 63.4767 126.441 63.3849C126.641 63.289 126.866 63.241 127.116 63.241C127.4 63.241 127.644 63.2994 127.848 63.4162C128.057 63.533 128.217 63.6956 128.33 63.9042C128.443 64.1127 128.499 64.3567 128.499 64.6362C128.499 64.9156 128.436 65.1638 128.311 65.3806C128.19 65.5933 128.015 65.7602 127.786 65.8811C127.56 65.9979 127.289 66.0563 126.972 66.0563ZM129.56 66V65.5558H130.599V62.0336H130.874L129.66 62.7906V62.2713L130.742 61.5894H131.118V65.5558H132.094V66H129.56ZM133.055 66V65.6121L134.619 63.9793C134.823 63.7665 134.975 63.5643 135.075 63.3724C135.18 63.1764 135.232 62.9741 135.232 62.7656C135.232 62.5111 135.153 62.3193 134.994 62.19C134.836 62.0565 134.606 61.9898 134.306 61.9898C134.072 61.9898 133.856 62.0315 133.655 62.1149C133.459 62.1942 133.27 62.3214 133.086 62.4965L132.898 62.0899C133.065 61.9231 133.278 61.7896 133.536 61.6895C133.795 61.5852 134.068 61.5331 134.356 61.5331C134.802 61.5331 135.146 61.6374 135.388 61.8459C135.63 62.0503 135.751 62.3422 135.751 62.7218C135.751 63.0012 135.682 63.2681 135.545 63.5226C135.411 63.7728 135.215 64.0314 134.957 64.2983L133.574 65.6997V65.5558H135.939V66H133.055ZM136.819 66V61.5894H137.338V63.5914H137.35L139.465 61.5894H140.128L137.694 63.8666L137.701 63.6039L140.303 66H139.621L137.35 63.9229H137.338V66H136.819ZM142.304 66.0563C142.02 66.0563 141.776 65.9854 141.572 65.8436C141.368 65.6976 141.23 65.4995 141.159 65.2493H141.228V66H140.727V61.3955H141.234V63.5914H141.159C141.23 63.3495 141.368 63.1576 141.572 63.0158C141.776 62.874 142.02 62.8031 142.304 62.8031C142.587 62.8031 142.831 62.8698 143.036 63.0033C143.244 63.1326 143.405 63.3182 143.518 63.5601C143.634 63.802 143.693 64.0919 143.693 64.4297C143.693 64.7675 143.634 65.0574 143.518 65.2993C143.401 65.5412 143.238 65.7289 143.03 65.8624C142.825 65.9917 142.583 66.0563 142.304 66.0563ZM142.198 65.6434C142.494 65.6434 142.731 65.5412 142.911 65.3368C143.09 65.1325 143.18 64.8301 143.18 64.4297C143.18 64.0293 143.09 63.7269 142.911 63.5226C142.731 63.314 142.494 63.2097 142.198 63.2097C141.901 63.2097 141.664 63.314 141.484 63.5226C141.309 63.7269 141.222 64.0293 141.222 64.4297C141.222 64.8259 141.309 65.1283 141.484 65.3368C141.664 65.5412 141.901 65.6434 142.198 65.6434Z" fill="black"/>
</svg>
